<mxfile host="app.diagrams.net" modified="2020-09-17T04:32:54.181Z" agent="5.0 (Windows NT 10.0; Win64; x64) AppleWebKit/537.36 (KHTML, like Gecko) Chrome/85.0.4183.102 Safari/537.36 Edg/85.0.564.51" etag="XU0qnNMiU7qgvIuplSdG" version="13.7.1" type="github">
  <diagram id="LVrHrScuW5G3Z48TKXpz" name="Page-1">
    <mxGraphModel dx="942" dy="604" grid="1" gridSize="10" guides="1" tooltips="1" connect="1" arrows="1" fold="1" page="1" pageScale="1" pageWidth="850" pageHeight="1100" math="0" shadow="0">
      <root>
        <mxCell id="0" />
        <mxCell id="1" parent="0" />
        <mxCell id="Vc47PZrKy_KbyLXp9I1h-1" value="" style="rounded=0;whiteSpace=wrap;html=1;" vertex="1" parent="1">
          <mxGeometry x="81.30000000000001" y="155" width="620" height="420" as="geometry" />
        </mxCell>
        <mxCell id="hLRde86INDdEDllG-ME0-14" value="事件调度" style="ellipse;whiteSpace=wrap;html=1;aspect=fixed;strokeWidth=1;fillColor=#dae8fc;strokeColor=#6c8ebf;" parent="1" vertex="1">
          <mxGeometry x="580" y="330" width="70" height="70" as="geometry" />
        </mxCell>
        <mxCell id="hLRde86INDdEDllG-ME0-30" value="" style="shape=image;verticalLabelPosition=bottom;labelBackgroundColor=#ffffff;verticalAlign=top;aspect=fixed;imageAspect=0;image=data:image/png,iVBORw0KGgoAAAANSUhEUgAAAOMAAADaCAYAAABU+/UpAAAAAXNSR0IArs4c6QAAAARnQU1BAACxjwv8YQUAAAAJcEhZcwAAFiUAABYlAUlSJPAAADHvSURBVHhe7Z15sBxV9cdvgCBLCLIaDGIIkAAuP0MCIgqEsCqLBkQDWBUwUBRlqEosIQih0GIpQctgISIli5Qg/MFShkXFkJIdAiZqQVhUllAoQUhkJwnk/fpzp78zZzoz7830dM/0zNxP1X3d06+X27fPuffcc7dhAxEuEAh0nPXibSAQ6DBBGQOBghCUMRAoCEEZA4GCEJQxECgIQRkLyIcffuiDcwPxtkLyt7DHdX29cwPFJChjwbAKtHr1mnivwvrrrx/vVWOPa5+t7hcUs/iEdsYuYPXq1e65555zy5cvj4/UZ9ttt3Xbb7+922yzzeIjgW4hKGNGUPLYkkilU/K3QMFWrFjh3nvvPbd06VL36quvunfffdf/7+mnn3Y///nP/X4WTJ8+3e25555+f4sttnCbb76523333d3GG2/sttxyS7fhhhv6/zUG4jKstBvIlKCMGWHNwKTiiccee8z94x//cLfccot7/vnn3ZIlS+L/dI4JEya4HXfc0R1xxBHu05/+dFlpa2EznHrvGEhPUMYcQFiXLVvmbr75Zr8drJQ7+uijfWk1depUN2LECPfEE094pdhhhx3c1ltvXdPcPPfcc90FF1wQ/3LuP//5jxs1alT8q8L//vc/t3LlSnf66ae7M844w33wwQfu/fffd9dff73//0033eS3tZgxY4YbP368O/LII93YsWMTpWcoHfMgKGPDlASwYnbi+6oI5FtvveUefvhhX/Jddtll7plnnon/U+ELX/iCVzqU7Mtf/rLbaKON3Ec/+tH4vyX+8pe/uHHjxnklTJZA+p1URuqTlG6lOEIpnrr2uOOOczfeeKPft6CsnDd//nz32muvuV/84hfuhRdeiP9bAaU89thj3d577+2++MUvrhNnSMY1kAKUMTAYaweiEsXvrVq1ym9FVCINXHHFFQORkqEF64RZs2YN/PnPfx6I6oIDf/zjHwfefPPN+Mr6PPXUUwO33nqr39dzhX7PnTu36jmRMvrjteCaqGSOfw3ODTfc4LfEd8GCBQNz5swZGDlyZNWzCJMmTfL35P0FzyF92CoEmiMo4xAkhQrBRwEPOeSQdYQUJUGgOSepeAguCgmDCSoCvXTpUr9f7zw9//DDD/fBKkUS4vH444/Hv2qj51x44YV+a5+LYvI+vBf/T74z8bjkkksGzRACjRHM1AZ4/fXXXaRIbuHChe7qq6+OjzoXKYLfHnPMMe6EE06oqldhtlnwnlJ3pO7WiEmn62uZqY3C+YShvKV61gMPPOD233//Qa/j+Pe+9z23zTbbuIceesjdeeed8X9K9V/SYsqUKTXrsIEh8CoZ8KWBgojqUeuYhISZM2eWSxvOkXk3FMn7F43B4mbjLjMaKMVnzJixThphopM2us6GQG2CMsZYIbnjjjsGJk+eXCVc06ZN82YmAiZ0TaN1sqIKZDNxok5LPRjsdZjDKCbpZNMNM9Yqb9HevUgEZYyhroayUQeTIOG8oGRM1rkkhHJYIKCNoOsIRWSweCnepIUyJB1LXkd6JC2K8ePH+0yOOmigNn1VZ1RdCKh7qf517733ulNPPbWqOeKSSy7xTRAnnXSS/22vC9SHdCKNXnnlFXf55Ze73XbbzdenxZgxY9xVV13lDjzwQP+bujQoXfs6fb1K9hHk4mqiwHyKhKMq98alr/+Tu6veo2OBwVEpiemufbaYtrYJiHRPmq86v1/pSzMVM+roo48uCwbhmmuuqRIewsqVK8v1wX4XlEYhnTBF5dRSWgrS2bZdUi2Qmd/vadyTyigBUFCpRnscnlAJAkLRqCc0kC3JNks8sqqLqi5uQz/Qk+MZqXck6yAXXXSR22677XxbX6SE/tibb77pu6gF2g/1dAvtt9TR+U7Ql3XIWCl7Fuoqtpki2XOG3/2S8xaFRYsWVX0D6uq0S+o3dUs1n/QTPaWMKJV1tCRNIdVN9Ft1F5w2RcWabOxTH9O+PQ78j30b+D/oPHus3RA/gtJfQenP97HH6WYn9K6dins76BlltEJGe6F1EuC1sx8xmTMXORe2Aqj4go4TEHAyHvvOCnTqlnOK0Cll1HOpF9o2SEpFxQ3YUo/X/63X1Z7Xi/RUyYhQInj6kJg7ttO1BIKA6Yozp5GRFJ1Ewsd76L1A70H8UTj9b8KECeWgYwRGYOAd7mTJqDgDpSHfQB0qiJeNGx3PbfUCrzbft1NxbwddrYz24/Kh7MfTCIReAMHUexFA723fOWluUwrZJhyZfUUU6HpxIs6KP5mOMk/77XuFrldGwMzUB8PswU0OnSwF0kJ8USKEkKFStnuegsB80zENz0pCGkghMWO7DbrQYe3YTEfVCjLgXqKrlREwX/SR8IzygTB9+IjdmnsmS8JkEPJAUmJAvfe1jhGZ7d0ApSAZEvBdp0+fXn4PHe8lukoZrbDxcWy9yHatAnLTwQbdJuG+lCKNoDgoPo1e1yjU7XBi8E5kKgTr9BBSRpnkio+wcdO1yU7vWaDnkokozW080sI7W7MUrDWAT0ClYxbP6zRdWTLy0dWndNSoUf53Ej5OM2aqhJaPjZLX9rCWpuDQPVF44lHPRMwS6oMSQoFTBvNtsO5kSgddm7Uy6pnyUOMUgywyqNK9K2mue/K9+e48D9PbOum6ma5RRvvR5cKnPkUpkkQfT/uNoA+tjywFq3c9OTbnESi5siYZf+Kj50EyXvyuF1fb3krJVe+8VlDdVsqYxTP0TgS+j7ZgnVPIQ5HbihulK7rDaVgOM6fttddevhtb9PFdpAQ1ZypTFypd1whMMXHbbbf5oT+Wetf/8pe/jPecGz58eLyXDRqu1Uj8da5I/qbb2TnnnOP3mRajlekwkvcW99xzT3n6jQ022MBvs8C+O9+H3wTisdVWW/n5Zw855BAvDwcddJCflxbqxbPwxEpZOMgBFcC2H8pbmgWUFJhu1jlASJaMlMCYgxxPjvhoh5maLBkttvTQb7D1TExvzDvOSeOFtPfHOuHeBLzXegZBJWOe6H2Ffb4dLdJtFFYZ7ce3iojLnwTPoteMdZcng1VGQq1zFNqtjEllUhwFabPTTmPL51OvLTlW1vo0tec2ir2u1pw3CllmlPXQ+1JVkPJbGWG/GymcMuqD11JEO9yJ4606I2p1H1OwCkZcdJxrqFfaazutjAKFS5ZUNs0kxErjtBAXmhYU+BZSfiyMvFH8eZZ9F9611nt3C4VSRhIWwZci2t4XKgklTARyRl2TBoSawPVsuZeeJwXTsxQvPcv2b223Mto4sQVrkhJIO40P1Dl5oomo2qWMBL5/EquQpAG04/2zoDAOHFW6VWlnCvszzzzT7y9dutTP58mKTZZNNtnEb4dyctQDp4ACKzLVu48cB3IidJoo4/Bb4sP+AQccUJ7u/8ILL/TT/TM/K04OzTGjbd5EGUS8lx98A+TlIx/5SHykBMeOP/54F1lM/jfygxwV4Zs1QuG8qSRcZPaUhSsqgfykRoDCZO0p434K9cj6ma3yzjvvlAVs9uzZLrIa/D7bs88+26+7gfIRb53XLQLZCPoeyXfiN/+bOHGiW7BggT+GHP32t7/1+0WnMMpIQhJIuNNOO80fQ7iSS5SpdEqGNHCdvV8t9D/9X9v11mtv0q1ZU1nFWE0ppJVmOCetsB7AZh72vTguJc2aTTfdNN7LH96pnpWiY8w+F5n2fp/Z6ZipDvJ496woVMlIO5+m9Ytsfy9c7TKvigvVH+dXrBJSzNtvv91vr7jiirIiQlJY2SpwvF+gDZIAM2fOdHfffXc5TYpIYZSR5clolAbmqaEBlzUu+kl4avHhh2vjvQoqGbW+IsvRUUoqXHvtteVAiWDDU089latAFinzJC0uvfRSPwcuHHrooV7OCkvsyOkI8orZgbP0txSMyGj3KAPFYygPKc0qjZ7bCvIEWm+qOirodzOBNM0D2vu4Px0iOoXkCS8zcmS7/lnPfKnNtdJ8VhQ6WjKSQ5OrX3zxxf739OnTvTcQu55wyimn+BmoO4Gto3USlWKf+MQn3KRJk3w3QNbkf/vtt/3MdlgTMscI/J/APv+bMWNGVdhll138/XoZ0uy8887zK2WpjoiZKsvrrLPO8iV44UzWWCk7RiQ0PreiEV3tZjaHa3fuRVwIQ3X+bmfJqCDsflEoUsmoIPmRDLHVN+tkPOvR9pJRpR5Qh6FSHSmie/HFF6s8mwR+d6rOmHXn77TY9BClJcyLhTqIRyag33YCm1YEyQ8BmWNL/EaPHu1uvfVWX6cWkslO0pGvSkLR0x/TAUiYWqMvuoX2m7TD4m3xeP/99+M9CqDigMyhcIxaoR0bvv3tb3s5LAodUUZ60sh+RxFpEypCztQMa9eu6+XsT6qVrtIEU6wMA/lCIYH6NMPv4Dvf+c46Pbs6RVuUkYQoKduAT5Cvfe1rfgwaTJ061W87TTIzeO211+K92thG//5uC61WOlkJRcpcFRf7nZRpsAwghYFKToVO0LaSsfSSa/2gXOqJeALpQ0m9kUHDyrU6DfVXoOvdYGy55ZZuwoQJ3sPZzt4nRWXnnXd206ZNc4cddpj/XZTvKZA/4oT3HhnEnCbDxVv/8MMP+2OKc6eUsS3eVHmzGNzKIwkahQHMO8OoiU5S8lCu9YOIGQ2gURyN0Oh5vUry/fldtDSRDDKqAzkUtv2WkTidjHvbmjZIDA2zYbgPFOmj1YpHUeLWDSTTqmhpR3zqxUnTfTLbHHQq7m1bRhxzVN5T6osMf+lUs0UgINT4r6YZ+kQzDKsTtEUZ8VZp7CF9I3fdddeyDR8IdBJkE/8AE3dNnjzZH2OM6FA+gzzIzYGjSjBbvKcwa9assiKmwV637j28pVEnBHqNpCxUfjf3vSkQuJZRL3TFhG9961t+C+vKWX7krozz58/33lMYMWKEP96s14rzdJ32k9fiqV29Grc6Y/ZKWx0P9BZJGUAuJBsiKR+DwbWUjHj1gbZvTT1pn5M3uZmpvAAvOWxYdTvU+PHj/bjFcePG+f83ghIjmeC1rlcdQP9TPAK9ByYmU7LQVgh77LGHGzt2bFO+CIbpMRsAQ60sNFstXrzYy1PbfBsoY1YkPVbqPFwrMKNYM9D8wQIvmjka76x9FvdjmkBmR+M8PLdagyLQW9AEoQEGtQJrkDSKneUvGZDfdpKbMqpNkZelh7x9Sab108xl9dC91D6ke9jRFPyfsWkoob2/DXbBVN0r0H0o87WjZZAtlhXg+5P52oWQ+I2MSR7rwVSTuobAXLpk7PqtsY/tIDdl1AzdyqVIRBSDY5RyMFRC6f82waSM+p/aLgnkljTiLl78aFWpzCS+MNTzAsWFb0dHDH1TLKBaUzVqZS5CI5YRSq7z7VyryuDbWTpmqowqeezI/WQJiDJx3mClFIlOjkQvnaSpK0UGO3obhR0YWGPCWq+U+j85XqC7sXOiqheNMli22reW0lBwDfdKLqBke4tRkLSDXJSRHImXKClI4+h6JYINsu1tyWjNkmpFrCikVWbbDSrQfainjAYGS/mS2MKglW/O1B3cQ9Yd8lnvmVmQuTLahMCMaCbyOpfp8zE5Kc3Y4pDRPVUyUnLqWMUZVFHEFSv+7bd21d48R+QH8kfL9VnrqBZWBq3p2SxYdboP9+wqZQR5uVQqqrRrBF5UwWITVx+CElLHXn75+eiILRFtqHxEzJdA90LJSNUEeYB6imHlJa2JKblV6YgVBoVXRkXQ5iQa9ZBF5G3pJmVUfRHPrErB2qGSoKo3ZhWvQOfhO6I4CiDnIZlw2u8sGaEuKdlDDvOk5R44tlFdU/LT7S3Lvn3JNRVADb3/93+fc1tssY3fr82An1kNmHU7uRhqoDdABmmc//GPf+yuu+46f+y73/2uP5528DfXMh3M3Llz/e+oIPDbvMisO9zzzz9f7sXAQNOLLroo1wljH3jggXhvKNad/oFEVgYS6H5QwmXLlrl99tmnvFgSBQLKqB5ZaaBLHHJMzx5gBWh67ORFZspIqQMkAvOKMNnPlVde6UdWt4otZdU1iVm+WsF2qwt0F3SD0/cjw2eUPt3gGLEPyOC8efO8EiIvaZRRmT0LCTE1zIwZM/zv++67z29zkZ/YXE2NbHItlmlH8GeFbfNRnVHNGpX5L2vVFwkVlzihnT0qAvmCLOi7EuhUou+btq6YRPVQee/ld+B4Vs8QLZeM5DqsafCvfz3np8FjKAq5hkJae92ieWkszJoNpRLyA7/fDLnkbIG2QL2fdTM0w2CkIN4yu//++/3cRFnIHPqNjFCycj9km3mbeA7TOyL3WctQJmaqhkgxpToQSSIrMyFLdD8SB5588snIbBl83lIGiwIfT9elMV0CnQOFQK4wUcePH1+WOcYg3nXXXeVVuCRzrX/fYf4eUkjQCmm/+c1v8pGfuIRMjfoL0kMmy+YMi55BUA8c29xBt7cStc1UndfuXviB7ECmkANVT+gIYrtaZi1zFsk0nVjUE0yyniUtl4yMTYSvfOUruU1VEL10vFfBzkB+zTW/ifeSrO+WLFkU7zt35JFHxnuBboOSCFlbsmSJ//2HP/zBbbbZZr7kkrmobV7wvIMOOsjvYxJnXjrGStkUyimA3vPcRiVWHhVbciSeQZADBzSsilCvF449JzhvuhuN0LEy0AityqOVd/X8Uo+cLEkx0p/TS213TC61++67+/1ICb1trdwpy1yD+oIa/ml41SzkTJPAJMJAffD666+PSmdmiiYOG3jHkux8ubsD3Qnt2DRfAI4USqmhoFntjDPOaHnWeivT7GsmuaVLl7rddtvN72eCV8kmsLmEuqSRS9AJW+PLWs2JktQrGcEOqyHQ9S1SvKrO5bijbbwD3Qej++13bjS00lE8CX1ekXlZW1kvPJtqDhxyB3KJE0880Xc9wt3LVIxsjzjiiGxziwg8aHhBI6Usl4w2t6LR97TTTvO/k9BYSzc9rle8A90HJWOU4dfsGlkPrDW8rK3KI3Kj6f+PPfZY9+qrr3qLENm66qqrMpOrppVRSkDPh6233trvv/vuu2V3slWSrLAvq3kuOabjBExZKtV/+tOf3DvvvONNGcKOO+7orwsE0mLlD2jn3G677fw+BcRmmzHr4drWZR5lbAaZeponhDlIQGZgHuZg8t5yEtn9WvA/QiDQCpI1K2dUfZB/mcH1ZLAZmm7akPb/6le/8tvZs2f7LaiUajmHGAJ7/+TzVDKzzabxN9DvJGUMvv/97/ttVG/02yxIVWe0xbRMVAiCH+gHyOipFuEnwRdBq0IWK2+navSn3gbTp08vN/QHRQz0E8g98k/BtHLlyrJF1gqplBGvKaifJ2QRmUCgm9CgdYZuZVEYpVLG5557zm8PPvhgvw2lYqBfsIWOusZpHGWrpKozav0M9UAgggTVHQOBfuDpp58ut2GmUKN1aLpktFNpLFy40E9NwAIhoXQM9APUEZF5wg033BAfdX4Vq5ahZGwEtddpDXQ7HImR+KE9L9APJNfv0CTZzXZer0XDJWPSBJ0yZYrfYp7SyyWUjIF+YKuttvJb1R2lB5obpxUaUkZbaf3973/vt/vtt5/fgv1/INBPSA/wn7RKQ8pIqSeFSz6U/ykEAv2AlXdt6QRQIZ0zpylvqu15Q0NnFr0OAoFuhg4wjLNEN2jyo8pGwZWmcGraTIVDDjnEK2IwTwP9Dj1xmJ0OVq1a5bdprcSGzVRgZD0wHV4roMQKtkjXDGCBQNZU5K0++n+zMqgxlmr8TyvDDXtTQfVF2w2uWRRRFJzw+usrfBGPIibHRAYCWYFcMaiBtTiOOeYYP2X/rrvu6gfIX3755V4GOQezE/lrRgbVLa40h28L+AaOBtE0GwsWLIiPpIO2GsZDavk4AlN3MF0G0ysEAlnTyLQdWudzqDbz5NhF9IHr586d63+nHdvYlDJqeWYGVrL+IsrZiPIQOUXQTtVfLzDHCNjrAoFmkexIWQijR4/2A4JZtxHZRY6t7KGQjcgcss8cOMxYx7ICXKuB9mlpShk1ulkLULJ2HWGoyOv/Wq+AQElIojAZMdMsMhGx1lEktJrLBPob5EZByoL81ir1kGE7gdlQcE9kWfdSAcO0pZBWZptSRkWW2ZSBhxIhvXQ99D+ZuYTKirJ2ntO1VbO9BZM1kBbJJIpmZU7HFaRQ6uZJkHzXg2uScq9rW6EpB47QhFBApbcRqBhrMdVIKd3EiROjveqZwlevXuOOP/74+Jdzt9xyS7wXCDQHcknAMQORJeZlTsfB7u+yyy5+2wg4GuVszJJUygh6ERvqwf9efPFFP5MWsJhqBa4rhQ03HO6PzJw502+VkIFAs8gjSrMDoyt+9KMfVXlIJa86xmKropmhgIPJfbOkVsZmsYumltopKdWrYbo72HTTTf2WOVk1xUcgkAZ6xHzzm9/0HVWguttaSfFQSJo8gBI0jYKNHj063ktPJspoc5x6jBgxIt5zbsWKFdHfdZf3FpSiIrLJ471ArQwMSH+FQAkUiqA00RbryxYMLC3HiH3GJwJLQtRL5yQ2vT/1qU/Fe+nJrGQcShA22og1MEqUSrsPolxqbXRdJZQYcDfddFO87/yExIESpBE5O+vKM9sCqzJppuvQe6k2UkoFCoEFCxb49COw6KrmdGJLR4CKLK6LTePS/Uqo4R9Sf4fYkdMQnE6YPn26b18h0CaIa1depVrIY8V1XI8LuLQux1p/vLKtTI6sEFaOqiDvn+0sQaCZiG8QaAxWkho1alR5BTUbNEh4MHnmeuReOoBccz+ul5c1DamUMRlYEGQwFDlcy7qGhKAxFmUj0CuHRlN7X0JQxmq0JFkytNrg3M8gY7adMSoh4//UBoW1aW9DK/KaiZlKn7+hoOjGtRwppP/9zDPPeFudIVkE1u2Q3a5zYPPNN4/3AqRh0gEhli9fHu8FSgxUpRVpV8t85Bh9rR955BG/NguceuqpflsPOw9ULWo9pxFSKSOTtypExbX3jg4WAWxr/R+FZNzXnDlzXFTEey9UVEr6fdofo5yl7E1N69nqZeqNmDnssMP8Nq0g9B7DvKcUxSEMli78DzlTkxoFBate1YJzd9hhBy/3yKz0ABkGfCOpZTYuIRuC0+tdMpidzP9ssFB3TPZ4oM8fz6EvbKCC0o6ugvoWBLp7kYbJtA0MDIwZM8ankSZQS6aRlUnb+6teHbxeGuublHwh6cjMm9pIbsA5Ok85FSvQaokAHZs376d+q5VqAyWUdueff7435RctWuTDQw895NMwdY7cw9DGCE888YTfNppGW2yxRbxXTfJ6yaxkuJEVleuRmTIOBS+BG3n77bf3dUN+60Us9Lr5179KM5Zzfq1z+ptS5o25v+eee/oQWBfJzb777uu3L720rKp9UXAessj/6GQCmJ3NTilD9apV2qaMgKPm5Zdf9u08kMxl+H3NNdf4/cMPPzzuvxoQJQGjs8Qwv0+o59AJlNBUimTwrGKcRF3fyPjpAAB0nWsWHEAtE5urQ1BqB+R0XWJt7aHQebiMdQ/s8yS2LiQXcaPPCAQsVj5tU8TIkSN92yDjGAlRKeiP6f+15HIw9AxdD2llNrUDx75sI+hc25ZIotDIz9AqjTkjaMR1s88IBIRkR/LDECk1zNcKKKQUsRmZ07m6Tys0NVUj9T3MTOzj0jw4XFq/j6mQSQWYBXThuvTSS70L2cIsWz/5yU+8earzk6ZsINAIkh/JnhwsNFn89a9/LbcVUjekfbEkz5WO5M2M3AAtBoU68bw0ctuUMh5wwAG+/x7B2t+NKo6NJPv//e9/y6MySCwlSCBQZJLyjtMRf8iYMWO8srdFGc8991w/QHjWrFl+TOIbb7zh12jEo5c2AoFANyE5Z3THCy+84I9p4DzDtCJzOL0uoIyNosb4Cy+8MD5SspnVETwQ6AeSdUo5JludtylV04YmMxbN2teBQDdDqSdTFdRUp3ppWppSxr333ttvrfIF0zTQj1i5V4N/q4MaGlZGvEyaWuCf//xnVc4QCPQzGgB/4IEH+m1aGlZGSkNGDDCSgn6RtboWBQL9Bs6bJUuW+H2tuZGWhpWRkhCF1FCRUDIGAqWxvLSXT5o0yQ+taoWGlNG6ar/xjW/4LWMSA4F+R3qB1SjHTlo/SkPKqIeABv4mPaqBQD/y4IMP+m0WE1I1bKZK27faaiu/pZETpw49DujtHuY3DfQD9La59957yz1ttEwiZiqgJ7mWjBYNa6KPKlNn0M+PqdHTRiAQ6CYwRz/2sY/5njY/+MEP3JlnnumPc6xVmuoOJ/bZZx+/Site1dCpO9CvqE8qfPDBBy3Lf9MlI0ydOtVvNeoirY0cCHQzL730kt9iomZREKVSxiOOOMJvFy5c6LehRAz0Eyp85s+f77dqYWiVVMqoqfofeOCBMO1DoM+o1Oo0JvLII4/021ZJVWckZ6CfKnVGvEm77babV8rQYTzQDyD/yPsmm2zif1cG27dGqpIRs1Sr7txxxx1+Gwj0C8j//fff7/fpHooiZuE3SaWMPPiss87y+1qNONQbA/2AlO7KK6/02+OOO85vsyCVMgJLZ40cOdKvRkwDqJSRDuRZ1yNJAAIdCwbrXKDzlGCB3kffWzJHgzyj8LOWAZbhA+QcGdQYRjkzsyB1nZFIaRoOZrVeb7313GWXXeaOPfZYv+5DliWlElp10scee8znTLTtbLDBBn771a9+1R111FH+uYpfoD+Q4i1evNjttddefp9CopXZvZNcdNFFfs4mFsVBZXbffXc/ty/VND2/ZZlDGdNilyd7/PHH/XQDhKyn4eCe8NRTT5XXTqgXmp33MtD9SO6sHLDEYFZI/pBr5FzTjWr6Gf2/VVKbqWBn/M6i13o9uB+9HfDaahIgpmBn1SoCE2SJE044wZsqoBwr0LvoG1sZgDVr1sR7rSN5xjJD5jWYmMnYIDN5j5UyNVEiVOUSkFVOYdFkWITFix+Nj66Jw8DAihX/Hpg8eXL5nJUrV5ZzzEBvI9lgBWfNDq4Z6bNCciRrcPTo0f53lrSsjLw0kRs/frz/nZfwc3+eM2fOHP+7ZApLGQlr/UrInEPAnICgjL0N31nfnBW07X5WWBliFnzur1nvs6QlM5X33mabbXw7C/1UozpdVGRzS+KbLczRCp///OejvwORyZCM+oeRqVypsKtBNmuTOdB5ZJri2NPCNng3R42qrBylXmJZwTMJmmLj61//eubVoBaVcZgX9pNPPtn/mjt3rj+2enV29rrQUuWPPvpo9JdnrPW/K6zv/v3v/8b7lfOzTrBAcWAIH15TtgceOMW9996q+D/5cM899/hCh8mKldlnSlxCtgSeK25FqLfia6vYOiOrCpVgdaxSnRGzZKedxvr/T5o0yZuxmBfBTO1NWCyJbz1h4riBt956KTryxsDLLz9flpEszVQRKWGV/GUtWy0ro5ox5MhJruSTVYRxyCgxCMzeTKIQWNpLxwn6EEEZewe+o2SNJi4cKHzrZ59dEh15wweceHLgcE4rWLlhH/njvlGVLDe5alEZS+s2wqJFi6oiyxrzrMnfaqKAfXEcODynXuC5wIdTCHQ/fMeSHKwtf+uSBx8ZRBnXVCkj8tgKOIZmzpxZlifJXZ7LFbZcMipCbHEtE2GaGFgPL7LnM4kwHwJTmIUt9SEIrOnIs+RpVeDZkHViBTqHvqXMU2Sh2pteCqqqtKqMQGlIU4asPgLVMOKikCWZ1BkVKZSACKOUUMnNWseWiHwQ6gcV1nhz1SplHnWGQGexzRil7y8lLFlolGJYZvyfxWhawcquqkFYeiXW5qKMqfqmDoYWVGXCHrxOuJ9bHed45513ljvkRqaJO/vss6O9D/zvChtUzUlCj4x58+b5/UBvsOOOO/oeWNOmTSsP6I2Uxm8BDzqyIQ8rPWTwptNflUVRm0H9oWktoHcZ94wyeN8LLDe8SmYINjW3xaOZFdju3JNAvaCSI1aCcilrUmRZMgc6j0q9ZkMaKwnZgbLXNrb28pSnTEtGciFyEq1wHJkVVf1X0zJ79my/7DhEiue3ST78sNTmefnll7tIef2xKOFCo38PoZETyTUtKB1HjBjh+6Ned9113kI6+uij/ciKt99+25eSdExpBmSZ0pHrKBWR5c997nP5ypNXyYxQrqG6I5VpsLkJFWu60HGs0VzGlozVdYVKUE6Gh43z8KrJtg/0D+qfXGmLHhxZT3L4sC9Z4h7cK1Js/ztvWcpcGRVhmRRqd6TyzUtxrFIRbgzuwXWESp/ApEKWFE+ubRw+kHcCBooFHnYrd42g/qaYonL84DWVzKGo7ZCj3JRRSyuTOMlGeUIz3i6aSKRkBDqElxSwAp40lYoEXNIQlLG/kDI2WjLawQUK1BNljdlSsSRLlbb1rMncgSOIuNp8agWVXI1i3doE7k0vHIJ12hD4DUER+w+1dTdaMtoM3Gb4ClkPxRqM3JQRbFGvgPlKqdiMonAudjy9eTBxk/e0ATNW9QCFQP9AiYgiNtpHGvnADNXofRvI6NtJ5u2MQu2L1hPKqA4WC8EjJc9rI3Cuzic8/fTTLkp07+USn/3sZ92hhx7qV8niXLDXBHqfZmRKSE7Z3nzzzX6mCMCL+uyzz7Z1KF5uyiiFWLZsmRs7dqzfZ8wZ657z4kFJuht9XxjsO+q8on5ryaLYeeedfceCyMJyJ510UqzgjDQcVjohR1ocz1ifkrKt53tN0OYIBx10UPnl7ccMdBeNKmK3UFK49d1Pf/pTr4jMryRFLJG/IkKuJaNekqBl5DBVmeIRWu0mF+gczB1K4/rGG28cH1kXzXHLWvdFVVopHCYpnQTgtddeq6rutCvuuSmjhZey5mpUYXZ77rmnLyWFlLaTsDT6eeedV55vk/ipPlGPVatWuRkzZpSXyesXmChY9auhaIOIDYlVrKRpyj6TcjOKv9L3uYQKlLaAMuaNPJrq0UCwvXCK4vHEq6b4NRNwj/cb6rPZSOg0ki+26l0jjzvgNSWe6k/dKXlsS8mIuUIJQw5DiUg/P8zV888/3///2muvdZMnT/b1y05BDsiS6L/+9a/dpptu6oYPHx7/p4TMMR1nblZGk8ANN9zgjj/+eL/fL+C5vvvuu31JwugIRkzgeWRmecFvjmfRP7lVVMKxFAUjik455RT/m++I7IG12DpShfIq2QZsbsNjCbQJ0tOhnQ2rWaF2KQ1k7jf0DemM0S1IBhk0TBc44q5OAuqx1Uk6YkOoqxxBjbOdMg3SoB4/dEDopnhnBV0P9f268f2JM0E9buhCJ/O1k7RdGfXxZKczsZBm/+4GNKM0OSp9ZvVh+wnbn7NbUZ2XtVuKYpl1JDURXnIiLWKDqSqKKNiKE8onIVRH935SRr2nlFGOK9KFOYoYxItgU3IWGZuZFGlAQUeUUZ4sTX9HoKQEPmSRhJu4KD6ah6fZTu69huawJR2UJsnAtJqaGbDTJiDPl8wRJ8VRIzv0v07TETOVoA9Egmjso02comHruUXLMNqF3jk5Sx9NAji0cIpoCJOCvmkRsHXd0uxyFUUsgsx1TBlLlMaG2fbHpHeu0d73eaMR5J0enpV8rn7XO54V3E/3tJNJU0omUb1aoRMe11rz9WoQsW1PrKRTfuMUG6WjNXASQjmTHYCshORDF8F1bjsDUD8izp3ISSU8CvVQ/AY7Jw16Ls05ZKC1vo3Shfqj0gwlaDc8nzqt6q9yGI4fP77sMMw6fVqlLY3+9bDdzGhkVUNylHP50R102M11arwGYZpIGvgjoXI33nij78QwWJ/MvFCXLqDBmu57rDVPX0rYfPPN3d57751bv0ruqcZz3Ve/hb4p3/Oss85yF198sRs5cuSQ/VizRHFiqB3LzTMSQ5OURZaW7yubfI9C4FWygyiHUi4lU4Kmg0rdTCZE+00Jcn/iQ6CELNGZia5U6tiFhmqFWqZjFvDOKnUVklS+5dqq0rEdzQeKn/bBmswqyXWezikKHVdGC4mDAqp+hlNAx5WA7QZTh7jgmOg0pAFCbaeHoL0ME59gZ0HI2uOrb2AZ6nsQV8WnXcpo5cROZCZHUvIdikRhlFGJSLAKSWW7U/U02/TSzGxjeSJPJulSa3Je24G7lhMjLRJivMqUvHRlHEqw5ZijPVl1tzwhPgrWB6Eui/pfUSmcMtrEkpscxWxnQuo5g3l5O4GNj+1GSLBpp3RDMbNC91YbI4HMajDkddUMa3lT67tpak+lj84pIoUyUy0kGh9bHxQBU+6qBM2794R14UMnPiTP1HNrme/JLYESk8wj62Yh7s03kZlse04lkXlPyNqqKFlIa32JR5wqvoXq5xapd00jFFoZSXQCJhmJy/SMEjByP9slLWus0DU76XJeSMh4d0i+N791LOs0sfe2Ao/ZjFLgVCLNcHLZXjl5NGsoLsgC5qigFNRzlUaQdVrkReGVUQlpSynML+V69pwssc4H+8Hbjd7NxgfBF9QLyZQI9njWaaLvIdRuN1hQL5c84qJ7YgEgD7aurExaJWbWz8+LwiqjhcQkYa23UM0MeSU2uS5mISZhOzyBQ0Hpo3cHWwrYQKN2vZIzK3RfFAETlIySagSBfY7Vci5lBc+3GYPMd0IR6vZp6QpltKWf2iEJtnTMEp5lBbmy37kuU9YpYfcJtWZuz9v7m0yjdqLvTQatQd4EKaKVl26iq5RRH8G6ramf5KGM2mo/62c0S7IkpFOESh/FDTPVKmaepRMofez3UXppmxe8m96T0lhpkIxHN9EVymhRItuPoQHKYD9CtiZLZzsSU9LpfQl6X63ApS2lhZo2SBcgTbpROKkqSMm0BetAYt++Wze+p8htEuM8oV8hfVYjhXSR4Plly/lN/1H1NWQqQU3Nng3tmcg2Ce8K9DsVs2bNipfF1lLq6rP6oe//Sb9eIF3ov1q4PphN8LOf/cxv6ev61ltvuZNPPtmdc845vr/rJZdcUp5WUenUre8JXaeMSnS248aN8zN9sUotHZHp0E3nZPYBBR1sztNuoJZw7bffftFfCoZaDLg99tgj3nd+5V5QunUTzBZIJ+/HHnvMd4hn5rarr77a/2/+/PnujDPOqJKHricuIbuKWqZI0oxLelttAMw5NQXoWBFR3Iir3q3kLdUisclQagzXuXm2xTaD0l4B6OYoT3Xy/zoH1M5MoH7IdaBz7LndTFeaqbVKC+YtjeqI3nwB1vWwZis5pwL88Ic/9DOc33bbbf53NXz3YkD8iTPDosTixYujv/XMsWHub3/7W7zv3LbbbhvvdR5bepHuRx11lJ+zFOtF/9OW92aO0xNPPNF/V5gzZ4676667yjO+69vWkoeuJFbKrsfmjnbxVJpClJPKy4ZjQP9XqM5dO+ussdh4aTXdkmOmVqlIqHSQoM0RuEf1+7Ufnk/6Y5HYdkECE0SBddIMZun0Kj2jjEn4eJpbh4DXTdi2KULebXKtYIUP77DiTO+WkpltM461VRlR0QRY8SBeiiOB76Rujryj/T58t26oTmRBTyqjPhr1EUYM6MPykZXj2jGB+tjdgG1vpE2R+iPCTQcI+65F6U9bD83krUB7Me9gj+Xdk6ho9KwyKgC5reZoJVhFVC+ebkDvkxTaZNC0l0XGOqTs9yBoYDTvq6pFP9DROXDypOIIwEdVaiPEaUAziGCunYULF5YdAsB1OATs4ic6VgQUF5pv/v73v5edG0BTDu2uLIFdkuv2t43atKq3L1in84ILLoh/OR/322+/vWoOHyhK2ueOV8k+ghzZDvEhYPrJxa6cWLmxupT1S+7cKnLC2PqqHDf6zf9sH2N6DBW53t4u+k4ZJSwMPVK3MQU7VErKp9HyQRkbQ+lEBkfGp/QGMjx5ehWUvtDvadyXyshH14enPmmHZhHkwSO3xsun84skLEWKi0XxoiRU3ZVOCLU82La0LFr6doK+U0aL/fiYTkmBIcjlTrOBVWR7LfsIVvJ4L6F34z0JtsQD/V/vzzlUB2ybIo4aSkLbg0bnB/pcGSFZUqJ8tj5DoPFc3cqEFSIUWTOxJYW0l+DdUCTV75RuNi34f61ZADBbBfdRsNf2O31fMipYwWCLUibHENKuh6Bh2lpoD9P1ukcvondLTpJMKUgaJDMx6oeYqLYktBaEQqBE35eMQ4HwoJRJZw/mF924KBGtcNYSNG1R8EZKA/5f6zwdI07ci8DzrYAn0fmDoWu5XxL9TwFQPLzMBDv3jAJ18GSGFRiaoIxDYIWQAb04d+gbaoVPdSGEuTLot4SuBduYPVj/V0oS+1yh33ZgNYHSpx5ck4xTEt2Xd6inuGQExIsOB7Xq1pSC/I/zIBn3wNAEZRwChEpBqGSi7pTsPUKgWxqlpS0duF5u/KEEVV3ZkufpN6WhfZ5t06t176Ha8HQNJb3tGsg+ik58kpYBgePUpe2EXYpDrXgEBqdne+C0Ewa/RgrhB7w++eSTfoS9JSpN3fDhw/3Qp0hJ/TE7JCrJ7Nmz3bx588q9UNQDRb2CWF3Jrs4VKYTbf//9a/ZyAXoeMSC53upU3JdR9I888oi7//773ZgxY9yll17qnnnmmfiMEgx32mmnndyUKVPc1KlTO7ISVy8TlLEFanXZQqhRlltuucUvh1aPadOmuU9+8pPu4IMPdh//+MerlItxmJEpGP9al6QyMv2I/Z2EZfZ22WUXP3IeGDX/xBNPuBUrVrjf/e537sUXX/QKXYsJEya4008/3SuirhcoMe9dKwMINE9QxhZAGMEKI/u2hJLgR3UpPy/Ps88+6x5++GH/v3pEdVK37777us985jO+RBXM6UOIzEd35plnxkedX3vwsMMOc6+++mp5rUaxbNky9+CDD7olS5bER+pDBsDUJSguc+xMnDgx/k8J3qtWyRqUMRuCMradAffKK8v9RFGUaCjrfffdN6SCZgmlHaUc5iawZUaAwUxnYTOaQLYEZWwjjQoyZujy5ct9KUhpxzQalKiNwigURkBQwoovfelLgz67VokXaC9BGduMVUgpQJI8FKLes5IEZewcQRkLQP0Sk0/TmflaA+0nKGMgUBC6cqrGQKAXCcoYCBSEoIyBQEEIyhgIFISgjIFAQQjKGAgUhKCMgUBBCMoYCBSEoIyBQCFw7v8B9XyPI/ShEzAAAAAASUVORK5CYII=;" parent="1" vertex="1">
          <mxGeometry x="349.99999999999994" y="190" width="83.3" height="80" as="geometry" />
        </mxCell>
        <mxCell id="hLRde86INDdEDllG-ME0-37" value="" style="endArrow=classic;html=1;exitX=1;exitY=0.5;exitDx=0;exitDy=0;entryX=0;entryY=0.5;entryDx=0;entryDy=0;" parent="1" source="hLRde86INDdEDllG-ME0-22" target="hLRde86INDdEDllG-ME0-14" edge="1">
          <mxGeometry width="50" height="50" relative="1" as="geometry">
            <mxPoint x="380" y="380" as="sourcePoint" />
            <mxPoint x="430" y="330" as="targetPoint" />
          </mxGeometry>
        </mxCell>
        <mxCell id="hLRde86INDdEDllG-ME0-39" value="1. 取出最近的事件" style="text;html=1;align=center;verticalAlign=middle;resizable=0;points=[];autosize=1;" parent="1" vertex="1">
          <mxGeometry x="380" y="340" width="110" height="20" as="geometry" />
        </mxCell>
        <mxCell id="hLRde86INDdEDllG-ME0-41" value="" style="curved=1;endArrow=classic;html=1;exitX=0.5;exitY=0;exitDx=0;exitDy=0;entryX=1;entryY=0.5;entryDx=0;entryDy=0;" parent="1" source="hLRde86INDdEDllG-ME0-14" target="hLRde86INDdEDllG-ME0-30" edge="1">
          <mxGeometry width="50" height="50" relative="1" as="geometry">
            <mxPoint x="610" y="270" as="sourcePoint" />
            <mxPoint x="660" y="220" as="targetPoint" />
            <Array as="points">
              <mxPoint x="580" y="240" />
            </Array>
          </mxGeometry>
        </mxCell>
        <mxCell id="hLRde86INDdEDllG-ME0-43" value="2. 将系统仿真时间调到时间发生时间&amp;nbsp;" style="edgeLabel;html=1;align=center;verticalAlign=middle;resizable=0;points=[];" parent="hLRde86INDdEDllG-ME0-41" vertex="1" connectable="0">
          <mxGeometry x="0.1778" y="16" relative="1" as="geometry">
            <mxPoint x="11.49" y="19.35" as="offset" />
          </mxGeometry>
        </mxCell>
        <mxCell id="hLRde86INDdEDllG-ME0-42" value="系统仿真时间" style="text;html=1;align=center;verticalAlign=middle;resizable=0;points=[];autosize=1;" parent="1" vertex="1">
          <mxGeometry x="346.3" y="166" width="90" height="20" as="geometry" />
        </mxCell>
        <mxCell id="hLRde86INDdEDllG-ME0-44" value="" style="group" parent="1" vertex="1" connectable="0">
          <mxGeometry x="300" y="520" width="120" height="50" as="geometry" />
        </mxCell>
        <mxCell id="hLRde86INDdEDllG-ME0-31" value="" style="rounded=0;whiteSpace=wrap;html=1;strokeWidth=1;" parent="hLRde86INDdEDllG-ME0-44" vertex="1">
          <mxGeometry width="30" height="20" as="geometry" />
        </mxCell>
        <mxCell id="hLRde86INDdEDllG-ME0-32" value="" style="rounded=0;whiteSpace=wrap;html=1;strokeWidth=1;" parent="hLRde86INDdEDllG-ME0-44" vertex="1">
          <mxGeometry x="30" width="30" height="20" as="geometry" />
        </mxCell>
        <mxCell id="hLRde86INDdEDllG-ME0-33" value="" style="rounded=0;whiteSpace=wrap;html=1;strokeWidth=1;" parent="hLRde86INDdEDllG-ME0-44" vertex="1">
          <mxGeometry x="60" width="30" height="20" as="geometry" />
        </mxCell>
        <mxCell id="hLRde86INDdEDllG-ME0-34" value="" style="rounded=0;whiteSpace=wrap;html=1;strokeWidth=1;" parent="hLRde86INDdEDllG-ME0-44" vertex="1">
          <mxGeometry x="90" width="30" height="20" as="geometry" />
        </mxCell>
        <mxCell id="hLRde86INDdEDllG-ME0-35" value="状态变量" style="text;html=1;align=center;verticalAlign=middle;resizable=0;points=[];autosize=1;" parent="hLRde86INDdEDllG-ME0-44" vertex="1">
          <mxGeometry x="30" y="30" width="60" height="20" as="geometry" />
        </mxCell>
        <mxCell id="hLRde86INDdEDllG-ME0-47" value="" style="curved=1;endArrow=classic;html=1;entryX=0.75;entryY=1;entryDx=0;entryDy=0;exitX=0.316;exitY=1.014;exitDx=0;exitDy=0;exitPerimeter=0;" parent="1" source="hLRde86INDdEDllG-ME0-14" target="hLRde86INDdEDllG-ME0-19" edge="1">
          <mxGeometry width="50" height="50" relative="1" as="geometry">
            <mxPoint x="390" y="460" as="sourcePoint" />
            <mxPoint x="440" y="410" as="targetPoint" />
            <Array as="points">
              <mxPoint x="540" y="450" />
              <mxPoint x="440" y="460" />
              <mxPoint x="360" y="460" />
              <mxPoint x="300" y="430" />
            </Array>
          </mxGeometry>
        </mxCell>
        <mxCell id="hLRde86INDdEDllG-ME0-48" value="4. 依时序插入未来事件" style="text;html=1;align=center;verticalAlign=middle;resizable=0;points=[];autosize=1;" parent="1" vertex="1">
          <mxGeometry x="365" y="430" width="140" height="20" as="geometry" />
        </mxCell>
        <mxCell id="hLRde86INDdEDllG-ME0-50" value="" style="curved=1;endArrow=classic;html=1;exitX=0.5;exitY=1;exitDx=0;exitDy=0;entryX=1;entryY=0.5;entryDx=0;entryDy=0;" parent="1" source="hLRde86INDdEDllG-ME0-14" target="hLRde86INDdEDllG-ME0-34" edge="1">
          <mxGeometry width="50" height="50" relative="1" as="geometry">
            <mxPoint x="600" y="520" as="sourcePoint" />
            <mxPoint x="650" y="470" as="targetPoint" />
            <Array as="points">
              <mxPoint x="610" y="460" />
              <mxPoint x="540" y="530" />
            </Array>
          </mxGeometry>
        </mxCell>
        <mxCell id="hLRde86INDdEDllG-ME0-51" value="3. 更新系统状态变量" style="edgeLabel;html=1;align=center;verticalAlign=middle;resizable=0;points=[];" parent="hLRde86INDdEDllG-ME0-50" vertex="1" connectable="0">
          <mxGeometry x="-0.0612" y="-3" relative="1" as="geometry">
            <mxPoint x="12.200000000000017" y="-7.959999999999999" as="offset" />
          </mxGeometry>
        </mxCell>
        <mxCell id="hLRde86INDdEDllG-ME0-53" value="" style="group" parent="1" vertex="1" connectable="0">
          <mxGeometry x="110" y="320" width="240" height="60" as="geometry" />
        </mxCell>
        <mxCell id="hLRde86INDdEDllG-ME0-36" value="事件队列 （依时序排列）" style="text;html=1;align=center;verticalAlign=middle;resizable=0;points=[];autosize=1;" parent="hLRde86INDdEDllG-ME0-53" vertex="1">
          <mxGeometry x="45" width="150" height="20" as="geometry" />
        </mxCell>
        <mxCell id="hLRde86INDdEDllG-ME0-52" value="" style="group" parent="hLRde86INDdEDllG-ME0-53" vertex="1" connectable="0">
          <mxGeometry y="30" width="240" height="30" as="geometry" />
        </mxCell>
        <mxCell id="hLRde86INDdEDllG-ME0-16" value="" style="whiteSpace=wrap;html=1;aspect=fixed;strokeWidth=1;dashed=1;dashPattern=1 1;" parent="hLRde86INDdEDllG-ME0-52" vertex="1">
          <mxGeometry x="30" width="30" height="30" as="geometry" />
        </mxCell>
        <mxCell id="hLRde86INDdEDllG-ME0-17" value="" style="whiteSpace=wrap;html=1;aspect=fixed;strokeWidth=1;" parent="hLRde86INDdEDllG-ME0-52" vertex="1">
          <mxGeometry x="60" width="30" height="30" as="geometry" />
        </mxCell>
        <mxCell id="hLRde86INDdEDllG-ME0-18" value="" style="whiteSpace=wrap;html=1;aspect=fixed;strokeWidth=1;" parent="hLRde86INDdEDllG-ME0-52" vertex="1">
          <mxGeometry x="90" width="30" height="30" as="geometry" />
        </mxCell>
        <mxCell id="hLRde86INDdEDllG-ME0-19" value="" style="whiteSpace=wrap;html=1;aspect=fixed;strokeWidth=1;" parent="hLRde86INDdEDllG-ME0-52" vertex="1">
          <mxGeometry x="120" width="30" height="30" as="geometry" />
        </mxCell>
        <mxCell id="hLRde86INDdEDllG-ME0-20" value="" style="whiteSpace=wrap;html=1;aspect=fixed;strokeWidth=1;" parent="hLRde86INDdEDllG-ME0-52" vertex="1">
          <mxGeometry x="150" width="30" height="30" as="geometry" />
        </mxCell>
        <mxCell id="hLRde86INDdEDllG-ME0-21" value="" style="whiteSpace=wrap;html=1;aspect=fixed;strokeWidth=1;" parent="hLRde86INDdEDllG-ME0-52" vertex="1">
          <mxGeometry x="180" width="30" height="30" as="geometry" />
        </mxCell>
        <mxCell id="hLRde86INDdEDllG-ME0-22" value="" style="whiteSpace=wrap;html=1;aspect=fixed;strokeWidth=1;" parent="hLRde86INDdEDllG-ME0-52" vertex="1">
          <mxGeometry x="210" width="30" height="30" as="geometry" />
        </mxCell>
        <mxCell id="hLRde86INDdEDllG-ME0-24" value="" style="whiteSpace=wrap;html=1;aspect=fixed;strokeWidth=1;dashed=1;dashPattern=1 2;" parent="hLRde86INDdEDllG-ME0-52" vertex="1">
          <mxGeometry width="30" height="30" as="geometry" />
        </mxCell>
      </root>
    </mxGraphModel>
  </diagram>
</mxfile>
